<svg width="96" height="46" viewBox="0 0 96 46" fill="none" xmlns="http://www.w3.org/2000/svg">
<path d="M79.8838 23.3486C78.7716 23.158 77.6078 22.9861 76.4018 22.8327C73.4266 22.4516 70.2028 22.1914 66.8475 22.0519C65.0689 21.9776 63.2576 21.9404 61.4274 21.9357C60.7986 21.9357 60.1698 21.9404 59.5409 21.945C59.4236 21.945 59.3063 21.9497 59.1937 21.9497C55.2002 22.0101 51.1598 22.2471 47.2742 22.6793C46.8754 22.7212 46.4765 22.7723 46.0823 22.8188C45.4112 22.9024 44.7402 22.9861 44.0832 23.079C42.8678 23.251 41.6758 23.4461 40.5121 23.6599C39.6814 23.8133 38.8602 23.976 38.0625 24.1479C37.7668 24.213 37.4759 24.278 37.1849 24.3431C37.0113 24.3849 36.8377 24.4221 36.664 24.4639C36.1995 24.5755 35.7396 24.687 35.2891 24.8078C35.2797 24.8078 35.275 24.8125 35.2656 24.8125C34.2285 25.0867 33.2243 25.3795 32.2623 25.6908C30.6339 26.2253 28.968 26.8899 27.288 27.6521C27.1473 27.7171 27.0065 27.7822 26.8657 27.8472C22.8253 29.7248 18.7426 32.1507 15.026 34.6139C14.7867 34.7719 14.5474 34.9299 14.3127 35.0925C12.9237 36.0267 11.591 36.9562 10.338 37.8624C6.32576 40.7531 3.11126 43.3696 1.38435 44.8149C1.3468 44.8428 1.31396 44.8753 1.27641 44.9032C0.455192 45.5957 0 45.9954 0 45.9954H15.3076C17.9167 45.9954 20.3241 44.7173 21.5629 42.6353C22.6845 40.7531 25.5142 37.6765 29.5781 34.6139C30.0333 34.27 30.5025 33.9307 30.9859 33.5914C31.0985 33.5124 31.2111 33.4334 31.3284 33.3544C31.9854 32.899 32.6706 32.4482 33.3792 32.002C33.3979 31.9927 33.4167 31.9788 33.4355 31.9695C33.8578 31.7046 34.2802 31.449 34.7072 31.198C34.8386 31.1237 34.97 31.0447 35.1014 30.9703C35.1201 30.961 35.1342 30.9517 35.153 30.9424C35.2656 30.8773 35.3829 30.8123 35.4956 30.7472C35.5237 30.7333 35.5519 30.7147 35.58 30.7007C35.688 30.6403 35.7912 30.5799 35.8991 30.5241C35.932 30.5056 35.9648 30.487 35.9977 30.473C36.1338 30.3987 36.2699 30.3243 36.4059 30.25C36.4904 30.2035 36.5749 30.157 36.664 30.1152C36.8471 30.0176 37.0301 29.9246 37.2178 29.827L37.3539 29.7573C37.7762 29.5435 38.2032 29.3344 38.635 29.1299C38.7758 29.0649 38.9165 28.9951 39.0573 28.9301C39.0949 28.9115 39.1371 28.8929 39.1746 28.8743C39.3764 28.7814 39.5782 28.6884 39.7847 28.6001C41.0423 28.0424 42.7411 27.4847 44.7824 26.9549C45.2001 26.848 45.6365 26.7365 46.0823 26.6343C46.5093 26.532 46.9504 26.4298 47.4056 26.3322C47.5323 26.3043 47.659 26.2764 47.7857 26.2485C48.1236 26.1788 48.4662 26.1045 48.8134 26.0394C51.8872 25.4259 55.4114 24.8915 59.1937 24.5058C60.2636 24.3989 61.3523 24.3013 62.4598 24.2176C62.9713 24.1804 63.4875 24.1433 64.0084 24.1107C64.9422 24.0503 65.8855 24.0038 66.8381 23.9667C69.9822 23.8412 73.1967 23.8365 76.3877 23.9806C77.5562 24.0364 78.7247 24.1061 79.8838 24.2037C82.4225 24.4128 84.9237 24.7288 87.3311 25.1703C85.271 24.4453 82.7416 23.8365 79.8838 23.3486Z" fill="#DBFF00"/>
<path d="M8.82227 36.5565C8.93959 36.4728 9.05691 36.3845 9.17892 36.3009L11.5863 34.5627L13.9373 33.0059C14.0781 32.9129 14.2142 32.8246 14.355 32.7317C17.2034 30.8634 19.9346 29.2275 22.5249 27.8519H13.9373L20.5869 9.49465L26.6123 25.8303C28.3674 25.0356 30.0614 24.371 31.6429 23.8551C32.5485 23.5577 33.5152 23.2742 34.5195 23.0047L34.5054 22.9675L28.5551 8.40715C28.0013 6.97111 27.5508 5.8232 27.1895 4.96343C26.8328 4.10366 26.3917 3.29966 25.8708 2.55142C25.3499 1.80319 24.6648 1.18974 23.8201 0.7157C22.9708 0.237018 21.9149 0 20.6479 0C19.3996 0 18.3531 0.237018 17.5085 0.711053C16.6591 1.18974 15.9786 1.81249 15.4577 2.57931C14.9369 3.34613 14.4441 4.31279 13.9842 5.47464C13.5244 6.63649 13.1302 7.63568 12.8064 8.46292L1.31865 37.3465C0.849378 38.4991 0.511504 39.4007 0.309718 40.0467C0.103239 40.6973 0 41.3247 0 41.9289C0 42.3843 0.0844685 42.8165 0.24402 43.2302C1.84892 41.8917 4.96487 39.3589 8.82227 36.5565Z" fill="white"/>
<path d="M37.49 22.2425L40.1507 21.7545C41.338 21.5361 42.5675 21.3362 43.8016 21.1643C44.4445 21.0713 45.1109 20.9877 45.843 20.8947C46.2935 20.839 46.6923 20.7925 47.0584 20.7553C50.4277 20.3835 53.9566 20.1465 57.5606 20.0489C57.3213 19.9559 57.0726 19.8677 56.8239 19.784C54.7732 19.0776 52.4784 18.427 49.9444 17.8414C47.9218 17.3348 46.4718 16.9537 45.5943 16.6888C44.7167 16.4286 43.8486 16.0614 42.9898 15.5967C42.131 15.1319 41.46 14.5743 40.9673 13.9283C40.4792 13.2823 40.2305 12.5108 40.2305 11.6232C40.2305 10.1871 40.9485 8.96019 42.3891 7.93777C43.8298 6.91534 45.721 6.40412 48.072 6.40412C50.606 6.40412 52.4409 6.87351 53.5859 7.81693C54.7309 8.75571 55.7117 10.0663 56.5282 11.744C57.1618 12.9151 57.7483 13.761 58.288 14.2768C58.8277 14.7927 59.6207 15.0483 60.6625 15.0483C61.8075 15.0483 62.7601 14.6207 63.525 13.761C64.2899 12.9012 64.6748 11.9345 64.6748 10.8656C64.6748 9.69448 64.3697 8.49081 63.755 7.2546C63.1402 6.02304 62.1735 4.84259 60.8455 3.71792C59.5175 2.59325 57.8469 1.6963 55.8384 1.01778C53.8299 0.33926 51.446 0 48.6914 0C45.2376 0 42.2343 0.511214 39.6861 1.53364C37.1333 2.55607 35.1812 4.01536 33.8343 5.91614C32.4875 7.81693 31.8118 9.99192 31.8118 12.4411C31.8118 15.0111 32.45 17.1582 33.7264 18.887C34.7119 20.2209 35.9648 21.3409 37.49 22.2425Z" fill="white"/>
<path d="M65.3083 25.965L64.1304 26.0394C63.5579 26.0766 63.0605 26.1091 62.6053 26.1416C61.526 26.2207 60.4466 26.3182 59.3908 26.4251C57.2368 26.6436 55.0923 26.9224 53.0463 27.2477C54.3649 27.7264 55.4489 28.4003 56.303 29.2647C57.2134 30.1849 57.6686 31.3839 57.6686 32.8618C57.6686 34.7208 56.8239 36.273 55.1392 37.5185C53.4545 38.764 51.263 39.3867 48.5694 39.3867C46.6079 39.3867 45.0264 39.08 43.8204 38.4619C43.3934 38.2435 42.9992 38.0018 42.6425 37.7416C42.7552 38.0483 42.8631 38.3411 42.957 38.6246C43.4075 39.963 43.6233 41.0226 43.6233 41.8731C43.6233 43.114 43.2244 44.2619 42.4314 45.3029C44.3413 45.7676 46.4671 46 48.8134 46C52.5113 46 55.707 45.3912 58.4006 44.1782C61.0942 42.9652 63.1449 41.2875 64.5434 39.1404C65.9418 36.998 66.641 34.5813 66.641 31.8905C66.641 29.6458 66.2374 27.7496 65.4303 26.2021C65.3927 26.1184 65.3505 26.0441 65.3083 25.965Z" fill="white"/>
<path d="M40.2868 37.1049L38.0296 31.5884C38.0249 31.5884 38.0249 31.5931 38.0202 31.5931C37.9545 31.6302 37.8841 31.6628 37.8091 31.7046C37.6777 31.7743 37.5463 31.844 37.4196 31.9091L36.6594 32.3088V32.3227C34.848 33.3312 33.0835 34.4559 31.3988 35.6874C31.7179 36.6866 32.206 37.6997 32.8677 38.7315C34.1441 40.7252 35.8053 42.3146 37.8466 43.509C38.635 43.9644 39.4797 44.3548 40.3854 44.6848C41.2394 43.8297 41.6665 42.8955 41.6665 41.8731C41.6665 41.2364 41.4788 40.3581 41.0986 39.2334C40.8875 38.5967 40.6153 37.8903 40.2868 37.1049Z" fill="white"/>
<path d="M78.4701 31.7295L80.2047 27.5893L83.3807 35.1912C86.0594 35.1912 88.3887 33.5826 91.1839 32.5485L87.5416 23.7842L85.5878 19.1117C84.6906 16.943 82.5772 15.5433 80.2047 15.5433C77.852 15.5433 75.7387 16.943 74.8215 19.1117V19.1511L73.0072 23.4885L67.4247 36.7963C70.1562 35.1993 73.7848 33.4053 78.4701 31.7295Z" fill="white"/>
<path d="M81.8729 40.2856C81.8729 42.3879 80.1479 44.0921 78.0201 44.0921C75.8922 44.0921 74.1672 42.3879 74.1672 40.2856C74.1672 38.1833 75.8922 36.4791 78.0201 36.4791C80.1479 36.4791 81.8729 38.1833 81.8729 40.2856Z" fill="#FF9900"/>
<path d="M83.2553 34.8912L85.5777 40.6081C86.4779 42.7102 88.5984 44.0921 90.9389 44.0921H96L91.0891 32.3203L83.2553 34.8912Z" fill="white"/>
</svg>
